<?xml version="1.0" encoding="UTF-8"?>
<svg enable-background="new 0 0 1238.876 1739.94" version="1.1" viewBox="0 0 1238.876 1739.94" xmlns="http://www.w3.org/2000/svg">
 <path d="m1159.4 1630.4s-20.803-42.431-33.481-67.868c-1.266-1.621-2.935-2.874-4.598-4.042-0.074-1.459 0.432-1.544 10.112-6.57 1.832-0.836 2.047-3.084 2.294-4.827 12.728-7.671 5.285-4.714-2.43-31.494 1.29-0.579 3.248-0.692 3.766 0.972 0.458-0.346 0.883-0.738 1.336-1.089 0.285 0.019 0.846 0.056 1.131 0.075-0.64-2.35 1.939-3.383 2.977-5.061 5.468-8.342-0.371-19.424-2.299-24.667-18.807-48.301-17.01-50.516-28.377-58.058-1.336-2.332-1.476-5.336-3.439-7.299-2.221-2.307-9.785-0.655-12.504-0.939-18.578-42.502-12.682-34.89-18.742-38.849 0.612-1.201 1.542-2.355 1.486-3.766 0.202-3.49-6.334-15.615-6.892-19.756 2.224-0.481 4.448-1.033 6.593-1.818 1.135-2.121 4.07-2.164 5.313-4.233 5.811-8.39 1.443-16.015-12.088-51.246-8.415-24.714-13.024-26.431-19.882-30.12-1.533-2.472-1.612-5.775-3.822-7.869-3.02-2.177-12.167-1.911-13.742-1.299-0.206-0.15-0.617-0.453-0.822-0.603 0.135-0.346 0.28-0.678 0.444-0.986-3.419-3.177-13.372-30.325-14.822-32.681-3.849-6.349-18.009 0.365-20.948 0.159-0.41-1-107.63-265.95-106.13-266.14 6.989-1.906 3.295-7.697 4.145-21.205 4.095-6.885 4.015-15.072 2.406-14.345-0.242-2.363-2.669-12.562-2.892-13.084-6e-3 -0.095-0.389-15.612-0.35-15.92 0.28-0.346 0.57-0.682 0.874-1 1.224-0.094 2.411-0.463 3.64-0.556 1.552 0.299 3.023 1.121 4.664 0.888 3.103 0.405 2.684-4.408 4.336 23.742 2.54 1.25-1.065 6.405 9.696 5 30.22-3.165 28.924 2.224 28.924-28.088 1.327-1.187 3.364-2.248 3.28-4.299 0-10.686-0.308-20.406-0.308-20.406 0.64-0.037 1.299-0.065 1.967-0.075 0.262-2.042 0.416-4.149-0.117-6.154-0.547-0.318-1.122-0.528-1.547-0.958-0.528-2.15-1.252-4.304-1.126-6.542 0.472-0.341 1.43-0.607 1.182-1.383-1.589-7.141-3.925-4.24-5.173-11.7-1.684-13.012-1.588-19.554-5.355-32.943-5.42-5.153-30.039 1.766-33.938-1.196-1.238 1.065-2.103 2.57-1.958 4.248-0.201 0.939 0.631 2.551-0.748 2.818-0.533 6.995 1.164 13.981 0.379 20.962-0.22-0.084-0.654-0.257-0.874-0.346-0.981 1.28-2.117 2.43-3.355 3.463-8.455 1.38-6.239 8.111-8.369 12.798-0.748-0.028-1.486-0.075-2.206 0.019-0.841 1.719-2.107 3.145-3.43 4.514-0.874-0.818-1.537-2.07-2.86-2.112-0.668 0.948-1.402 1.986-2.682 2.037-1.543-2.86-1.329-1.487-3.07-2.336-0.393-1.991-0.977-4.009-2.696-5.257-1.561-2.033-4.332-1.355-6.542-1.379-1.07-2.589-0.238-5.444-0.804-8.126-1.052-4.951 1.211-10.185-9.958-12.046-6.074-40.853 0.437-42.853-12.766-45.423l0.285 0.621c-8.292-3.778-28.536-3.514-36.003-3.486-0.336-0.565-0.958-1.042-0.911-1.738-0.022-0.578-0.419-11.102-0.033-11.7 8.027-0.957 21.787-1.137 23.312-4.715 0.213-5.558-0.903-47.422-0.888-48.105 0.925-0.355 1.86-0.724 2.841-0.958 1.981 1.317 0.124 14.003 2.033 20.476 0.888 0.812 11.42 0.528 12.42 0.49 0.079-1.607 0.112-3.21 0.122-4.808 1.149 0.827 2.112 2.07 3.612 2.271 1.332 0.206 3.093 0.892 4.112-0.341 0 0 34.962 0.186 56.965-0.79 2.243-2.411 2.482-1.598 2.467-9.364-2.462-206.52-4.843-149.65-1.374-168.65 3.22-11.875-0.324-46.729 0.743-51.624 13.13-0.196 8.789-11.267 9.364-17.537 0.752-1.612 2.631-2.229 3.953-3.304 1.35-0.57 0.5-2.047-0.065-2.874-0.883-1.911-3.514-2.257-3.953-4.444l-0.463 0.042c5e-3 -1.047 0.019-2.089 0.075-3.126 0.883-1.336 0.458-3.037 0.547-4.542 0.22-14.385-42.242-5.486-48.194-9.051 1.309-4.919-8.75-5.509-10.481-6.397 0.855-0.145 1.122-0.575 0.794-1.285-0.201-0.022-11.465-0.668-12.528-0.846-1.248 0.29-2.42-0.215-3.542-0.673 0.944-1.219 2.523-1.248 3.939-1.28 0.285 0.173 0.86 0.523 1.145 0.701-0.78-0.617-1.869-0.967-2.336-1.878 0.248-0.701 0.617-1.351 0.93-2.023 2.664-2.131 5.659-3.934 7.747-6.701 5.256-5.445 9.278-18.484 8.584-18.551 0.645-0.781 0.593-1.808 0.71-2.752 3.897 0.322 6.135 4.593 10 4.761-0.019-0.776-0.037-1.547-0.047-2.308 0.874-0.836 1.486-4.191 3.14-4.981-0.388-0.439-0.766-0.874-1.14-1.294-0.014-0.944 5e-3 -1.883 0.033-2.818 3.227 1.165 2.154 0.545 3.472-0.799 1.836 1.411 3.939 3.196 6.453 2.481 5.425-2.602 4.233-9.01 4.304-12.551 0.274-13.832-4.25-196.43-4.598-199-0.413-5.514 0.96-3.516-3.079-9.719 2.519-0.767 5.154-1.187 7.616-2.135 20.4-0.853 16.463-17.06 17.144-22.046 9.52-16.767 5.842-44.822 0.822-63.343-3.862-14.252-9.388-10.957-16.055-11.841-23.346-3.095-39.034 2.666-42.188-11.682-2.132 2.881-5.214-1.71-6.101-2.71-2.655-2.995-7.109-2.508-10.678-2.333-7.193 0.352-53.037 1.796-53.037 1.796-0.435-1.435-0.294-2.991-0.631-4.458-1.257-0.037-2.505-0.056-3.747-0.098-0.528 0.701-0.865 1.509-1.182 2.313-2.513-0.902-33.577-7e-3 -47.839 4.897 0 0-59.866 5.41-56.035 5.089-19.031 1.599-103.32 16.926-106.55 25.784-1.059 2.909 1.444 4.907 0.858 11.976 0.887 15.997 3.953 19.618 5.958 24.462 2.308 2.122 8.959 8.947 18.13 13.583 8.439 4.208 19.179 18.609 19.948 25.597-15.679-3.167-19.133-1.508-30.887-1.906-4.005-0.986-6.775-4.434-10.58-5.865-15.089-7.196-103.38 1.7-109.54 1.627 3.145 0.037 6.308-0.547 9.434 0.089-2.991 0.117-5.99-0.094-8.967 0.266-2.238 1.822-3.579 4.36-4.612 6.995-6.252 0.85-12.612 0.701-18.887 0.271-0.023-0.79-0.047-1.584-0.042-2.369-0.491-0.023-0.972-0.051-1.449-0.07 0.477-1.453 1.079-2.855 1.78-4.21-6.701-0.023-13.481 0.827-19.78 3.192-2.318 0.855-3.444 3.224-4.705 5.168-2e-3 0-67.217 1.71-67.217 1.71-5.702 2.81-7.14 9.973-8.878 14.896-7.77-0.094-90.449 3.223-94.515 2.804 0.126 0.013-4.091-6.611-4.536-7.202-17.566-23.328 4.814-23.928-84.596-23.928-66.329 2.671-63.732 10.327-66.689 16.981-12.042 32.586-11.292 78.006-11.38 112.57-3e-3 1.181-1.394 8.198 7.193 15.642 26.401 20.184 66.913 39.952 66.913 39.952-0.02 1.005-0.346 13.025-0.818 14.406 0.179 9.852-1.332 38.515-4.761 47.47-2.743 6.808-4.593 14.121-4.075 21.513-3.615 4.766-0.045 14.532 1.196 15.373 7.73 6.008 51.048 11.588 64.567 8.093 13.372-3.585 35.479 2.824 42.816-20.069 0.472-4.303 3.743-7.462 5.308-11.35 2.118-3.46-2.579-0.924 18.425-2.673 6.532 0.089 13.07-0.612 19.593-0.182-0.916-0.149-1.827-0.29-2.738-0.411 3.878 0.146 48.745-1.317 56.535-1.439 3.49 0.205 3.3 7.512 9.434 12.392 0.79-0.168 1.579-0.365 2.313-0.72 1.355 0.832 2.869 1.958 4.556 1.486 3.967-0.95 59.376-1.91 61.18-1.99 1.631 1.36 2.561 3.677 4.785 4.318 15.776 4.61 25.217 0.68 40.008 2.005-0.575-1.042-1.229-2.028-1.827-3.047 1.375-0.21 9.176-0.449 10.504-0.037 1.065 1.388 2.888 1.738 4.229 2.803 2.458 0.981 5.173 0.131 7.719-0.079 2.327-0.219 4.229 1.799 6.57 1.467 2.953-0.388 5.948-0.402 8.925-0.238 1.033 0.444 1.706 1.434 2.715 1.939 0.935 0.444 1.869 0.897 2.734 1.49 5.507 0.01 6.405 3.552 24.667 2.378 0.673-0.089 1.533-0.028 1.705-0.874 0.014 0.168 0.037 0.5 0.047 0.668 1-0.152 13.78-0.958 24.186-5.037 0.79-0.308 0.808-1.322 1.168-1.967 1.607-0.318 3.271-0.07 4.878-0.411 3.56 0.445 4.458 0.507 6.607-2.486 8.275-0.733 2.434 0.734 8.014-1.654 2-1.594 3.687-3.663 6.014-4.785 3.281-0.572 22.292-1.597 23.293-1.603 2.383 0.149 4.229-1.734 6.57-1.953 1.131-0.598 2.355-0.981 3.635-1.131 0.308 0.36 0.626 0.724 0.948 1.093 0.476 5.285 1.071 6.288 4.159 7.864 0.65-0.08 1.313-0.224 1.981-0.094 19.606 3.518 15.918 1.892 18.182 3.724-0.561 0.43-1.107 0.869-1.645 1.318 0.12 1.724 0.054 1.385 0.523 3.187 0.234 0.159 0.706 0.481 0.944 0.64 0.023 0.234 0.065 0.696 0.089 0.925-5.383-0.729-10.967-0.061-16.186-1.752 0.331 3.113 7.817 7.1 12.317 8.308 0 0-0.322 9.159 0.402 21.686-2.948 2.028-5.526 2.725-3.565 6.869 0.752 1.668 2.738 2.07 4.047 3.173 0.033 0.105-0.945 15.119 1.336 21.065 0.902 1.149 1.991 2.196 3.233 2.986 2.313 0.561 4.631-0.57 6.944 0.028 0.346-0.01 48.503-0.594 52.862-0.556 1.736 4.582 2.239 27.415 4.88 29.76 2.664 2.365 14.659 6.051 25.465 5.636 2.033-0.061 2.425 2.271 3.743 3.341 6.455 5.184 28.941 5.868 36.243-0.409 2.653-2.28 0.84-1.971 1.672-3.016 0.966-1.213 5.842-0.853 7.336-1.098 4.11-0.672 8.109-1.519 12.147-2.549 5.182-1.322 13.887-1.081 14.973-4.698 0.961-3.195 0.73-13.372 1.523-17.331 2.611 0.397 24.561 23.986 26.139 54.839 0.154 1.425 1.514 2.219 2.313 3.285 0.135 0.752-0.734 1.191-1.056 1.79-2.228 2.219 0.423 19.327-1.472 20.56-3.762 0.304-7.635-0.402-11.313 0.65-2.418 6.598 0.066 21.104-1.925 23.153-2.019-0.37-21.341 0.636-23.518-0.318 0.094-1.593-0.07-3.177-0.598-4.677-13.033-4.975-14.116-9.817-56.203-7.157-3.819 0.241-22.624 6.617-23.089 8.554-0.43 1.804-0.584 3.659-0.664 5.514-15.366 0.12-16.185-0.194-17.826 1.187-1.745 4.343-4.223 17.701-5.799 19.42-3.266 0.43-6.589 0.262-9.813 0.967-4.182-0.201-8.373 0.019-12.555-0.042-0.337-0.378-0.668-0.748-0.991-1.112-5e-3 -0.157-0.739-21.349-0.701-21.747-0.635-1.607-1.219-3.598-3.047-4.187-98.574-3.494-81.263 97.627-15.892 97.211 6.07 0.449 12.154 0.079 18.233-0.061 1.378 0.154 2.448-0.972 3.154-2.019 0.032-0.179 0.585-8.927 0.561-13.831 0.757-0.528 1.565-0.991 2.294-1.57-0.5-1.846-0.645-3.743-0.495-5.645-0.271-0.72-0.472-1.458-0.663-2.182 0.206-0.234 0.607-0.701 0.808-0.934 3.318-0.201 6.789 0.551 9.972-0.687 2.556 0.509 5.154 0.103 7.743 0.238 1.856-0.196 0.643 3.899 1.196 8.173 0.859 7.365-1.518 10.293 5.215 11.032 0.145 0.182 0.444 0.542 0.589 0.724-1.477 3.86-0.397 8.117-0.808 12.144 0.094-0.033 0.276-0.094 0.369-0.121-0.495 1.542-0.238 3.187-0.332 4.789 0.103 0.014 0.308 0.042 0.411 0.056-1e-3 2e-3 0.197 19.054 0.145 21.251 0.117 0.201 0.35 0.612 0.467 0.818-0.117 0.187-0.351 0.561-0.467 0.748 0.037 3.734 0.168 7.472 0.206 11.21 0.215-0.037 0.645-0.112 0.855-0.145-0.168 0.406-0.332 0.827-0.486 1.257 9.512 3.218 26.941 0.202 29.49 4.687-0.061 0.308-0.192 0.925-0.257 1.234-1.654 1.435-3.724 2.425-4.925 4.332 1.626 1.635 4.285 1.766 5.523 3.836-1.869 3.054-34.819 1.979-42.62 7.065-12.668 0.433-10.118 9.112-10.542 15.78-1.073 11.424 0.547 25.101-1.855 28.41-12.405-1.96-89.145-22.248-92.062-23.036-10.614-2.922-7.723-3.796-10.165-7.66-15.826-25.045-54.96-8.993-46.429 21.02 4.023 14.154 19.75 21.299 33.335 15.385 2.055-0.894 4.337-2.29 6.654-2.248 0.862 0.016 74.459 20.401 75.971 21.324-3.254 2.966-7.318 1.14-13.313 5.388-4.563 3.235-1.3 10.931-3.958 16.256-0.696 1.019 0.192 1.948 0.794 2.729 0.28 4.257 0.663 8.612-0.14 12.827 0.229 0.514 0.528 1.014 0.822 1.523 11.691 6.299 6.945-2.801 8.687 19.308 0.327 3.121-0.201 6.261 0.276 9.373-4.052 10.14-159.26 259.98-165.98 270.65-1.485 2.359-32.187-9.638-35.204-10.581 0.978 0.306-1.834-5.205-2.391-5.691-1-0.873-9.974-5.334-12.541-0.798-0.627 1.002-14.617 22.778-16.817 26.625-0.547 0.182-1.079 0.388-1.607 0.607 0.112 3.858-6.307 9.166-6.416 13.953-0.061 1.098-1.266 1.453-1.991 2.07-1.042 0.644-5.309 7.259-5.593 9.205-0.112 1.486 1.603 2.603 1.089 4.084-4.469 1.632-2.294-3.234-9.453 8.691-0.888 1.626 0.271 3.187 1.177 4.491-0.79 1.346-2.79 0.986-4.154 1.005-2.392 2.252-3.668 5.332-5.43 8.042-0.752 1.037-0.448 2.35-0.584 3.556-1.15 0.888-2.752 1.271-3.472 2.649-2.191 3.421-3.878 7.201-6.645 10.224-0.533 2.084-1.528 4.005-2.575 5.878-10.375 20.788-13.777 19.609-13.191 27.48-0.692 1.374-2.318 2.089-3.061 3.491-22.841 36.01-24.249 35.74-25.139 40.802-1.923 2.623-1.731-0.041-7.495 10.406 0.019 1.406 0.991 2.663 1.037 4.019-1.112 0.519-2.374 0.542-3.57 0.724-1.864 1.799-3.149 4.047-4.444 6.266-3.338 5.925-0.267 4.305-0.879 6.575-1.089 0.981-2.673 0.696-3.897 1.336-6.143 8.587-5.418 8.745-5.388 10.906-5.213 4.114-6.573 7.49-10.607 16.56-13.625 23.879-18.877 27.003-14 32.527 8.111 11.392 31.042 18.149 37.335 28.578-0.086 0.162-17.544 23.613-17.546 23.616-0.495 0.667-6.767 10.947-7.654 11.943-11.803 13.611-12.604 17.322-12.619 23.038-0.025 9.536 4.049 19.494 12.086 24.942 12.404 8.409 30.208 4.315 43.674 0.856 17.21-4.42 10.561-8.851 17.441-19.103 4.981-7.423 16.824-36.545 17.485-37.545 1.126-0.266 2.374-0.168 3.378-0.827 2.311-1.295 78.804-123.77 79.45-125.95 0.771-0.033 1.542-0.047 2.322-0.023 5.637 5.246 9.427-0.451 15.532-8.649 63.501-76.701 57.331-73.173 67.175-67.759 7.884 2.966 10.645-6.376 14.373-10.49 1e-3 0 160.56-12.742 160.56-12.742 1.196 0.397 2.318 1.023 3.561 1.322 2.36 0.584 4.841-0.294 7.187 0.299 0.691 2.037 0.687 4.21 0.406 6.327 1.393 7.824 7.86 9.251 10.733 10.612 1.093 0.505 0.841 2.014 1.219 3.009 1.444 1.832 2.556 3.911 4.182 5.612 0 1 0.661 97.552 2.892 102.97 6.31 15.313 95.173 13.722 91.319-4.836 0.076-0.918-1.77-93.982-2.14-96.828-0.327-2 1.491-3.374 2.318-4.986 2.612-3.808-1.341-3.505 15.957 2.163 1.822 0.785 3.911 1.135 5.505 2.383 0.493 1.017 4.99 21.54 21.387 17.448 4.392-0.299 7.715-3.425 11.247-5.677 1.951-0.161 9.037 2.494 10.794 3.374 1.434 7.953 17.324 54.247 19.541 63.913 0.561 3.098 0.047 6.271 0.266 9.411 0.35 0.86 0.631 1.771 0.748 2.724 0 2.393 1.64 4.29 2.177 6.57 1.832 2.846 5.294 4.472 8.63 4.584 3.126 0.346 6.047 1.977 9.247 1.645 16.188-1.257 14.111 2.325 22.326 0.257 1.682 1.318 2.303 3.448 3.304 5.261 14.142 25.823 7.107 23.12 21.046 19.976-0.422 4.599 55.765 143.69 59.002 153.25 2.681 6.303 3.393 5.014 9.719 3.874 0.122 0.093 0.365 0.285 0.486 0.378 0.82 5.754-3.195-2.33 2.719 19.639 1e-3 4e-3 13.116 48.795 13.116 48.795 1.958 4.594 9.537 11.801 13.719 14.382 20.193 12.45 93.576-19.154 80.38-37.746zm-429.24-467.71c-1.86 1.948-5.313 1.692-6.719 4.243-0.262 5e-3 -0.78 9e-3 -1.042 0.014-2.868 3.23-15.8 44.015-18.864 50.143 9e-3 0.365 0.023 1.089 0.033 1.449-0.294 0.313-0.579 0.635-0.855 0.976-0.056 0.266-0.168 0.804-0.224 1.07-1.323 1.439-1.187 3.528-1.682 5.318-0.603 1.734 0.939 3.458 0.164 5.173-2.706 2.043-147.59 11.656-148.7 11.612-1.699-0.148-10.234-6.117-11.35-6.757-2.429-0.589-11.32-6.104-12.322-6.701 1.079-2.104 160.01-261.05 161.72-262.39 1.327-0.36 2.766-0.075 4.093-0.505 2.654-0.851 5.233-1.93 7.859-2.846 1.911 0.061 3.897-0.995 5.738-0.215 3.019 1.556 6.476-0.85 9.532 0.706 0.011 0.981 0.561 39.004 0.939 39.91 0 0.29 9e-3 0.86 0.014 1.145 3.704 5.244 6.199 4.543 9.794 6.29-2.229 14.105 2.018 150.36 1.874 151.36zm114.01-19.181c-5.473 6.364-0.793 4.97-9.383 10.271-0.455 0.203-8.672 4.956-9.472 5.654-0.72-0.112-2.257 0.388-2.056-0.804 0.356-6.588-2.26-81.547-0.878-85.908 0.28 0.052 0.836 0.159 1.112 0.21 0.161 0.494 9.008 29.639 11.621 38.812 0 0 4.542 14.461 4.696 14.63 0.734 2.748 1.771 5.425 2.29 8.233 0.751 1.048 2.345 5.708 2.07 8.902zm4.579 101.06c0.477-4.66-1.345-2.69 6.336-6.92 0.654-0.453 1.463-0.472 2.229-0.28 0.505 1.738 1.841 3.546 1.089 5.401 0.509 0.402 1.037 0.813 1.579 1.229 0.827 1.243 1.701 2.486 2.234 3.911-2.547 0.998-12.467-2.828-13.467-3.341z"/>
</svg>
